<svg id="visual" viewBox="0 0 1800 600" width="1800" height="600" xmlns="http://www.w3.org/2000/svg" xmlns:xlink="http://www.w3.org/1999/xlink" version="1.1"><rect x="0" y="0" width="1800" height="600" fill="#931C1C"></rect><path d="M0 391L257 395L514 417L771 393L1029 415L1286 396L1543 372L1800 387L1800 601L1543 601L1286 601L1029 601L771 601L514 601L257 601L0 601Z" fill="#f5730a"></path><path d="M0 427L257 446L514 475L771 479L1029 414L1286 458L1543 467L1800 397L1800 601L1543 601L1286 601L1029 601L771 601L514 601L257 601L0 601Z" fill="#da5b09"></path><path d="M0 470L257 458L514 484L771 440L1029 452L1286 461L1543 451L1800 506L1800 601L1543 601L1286 601L1029 601L771 601L514 601L257 601L0 601Z" fill="#be4407"></path><path d="M0 507L257 484L514 500L771 542L1029 511L1286 523L1543 494L1800 506L1800 601L1543 601L1286 601L1029 601L771 601L514 601L257 601L0 601Z" fill="#a32d04"></path><path d="M0 569L257 530L514 527L771 565L1029 537L1286 524L1543 524L1800 564L1800 601L1543 601L1286 601L1029 601L771 601L514 601L257 601L0 601Z" fill="#871400"></path></svg>